# xmcd
#
# Track frame offsets: 
#        150
#        12490
#        22091
#        42050
#        51293
#        67879
#        78795
#        89085
#        104217
#        122545
#        133818
#        139993
#
# Disc length: 2007 seconds
#
# Revision: 0
# Processed by: cddbd v1.5.2PL0 Copyright (c) Steve Scherf et al.
# Submitted via: ExactAudioCopy v1.0b4
#
DISCID=aa07d50c
DTITLE=Brunning Sunflower Blues Band  -  I Wish You Would (LP)
DYEAR=1900
DGENRE=Blues
TTITLE0=I Wish You Would
TTITLE1=On The Road
TTITLE2=Checking On My Baby
TTITLE3=I'm A Star
TTITLE4=Broken Hearted
TTITLE5=Bob's Boogie
TTITLE6=Mean Old 57
TTITLE7=Uranus
TTITLE8=Bad Luck
TTITLE9=All Right With Me
TTITLE10=C and W Blues
TTITLE11=Good Golly Miss Kelly
EXTD=
EXTT0=
EXTT1=
EXTT2=
EXTT3=
EXTT4=
EXTT5=
EXTT6=
EXTT7=
EXTT8=
EXTT9=
EXTT10=
EXTT11=
PLAYORDER=
